<?xml version="1.0" encoding="utf-8"?>
<!-- Generator: Adobe Illustrator 17.0.0, SVG Export Plug-In . SVG Version: 6.00 Build 0)  -->
<!DOCTYPE svg PUBLIC "-//W3C//DTD SVG 1.1//EN" "http://www.w3.org/Graphics/SVG/1.1/DTD/svg11.dtd">
<svg version="1.1" id="Layer_1" xmlns="http://www.w3.org/2000/svg" xmlns:xlink="http://www.w3.org/1999/xlink" x="0px" y="0px"
	 width="74.512px" height="70px" viewBox="0 0 74.512 70" enable-background="new 0 0 74.512 70" xml:space="preserve">
<g>
	<g>
		<path d="M68.691,7.13h-2.984v2.329h2.984c1.926,0,3.493,1.567,3.493,3.493v4.657h-2.329c-0.643,0-1.164,0.521-1.164,1.164
			c0,0.643,0.521,1.164,1.164,1.164h2.329v44.242c0,1.926-1.567,3.493-3.493,3.493H5.821c-1.926,0-3.493-1.567-3.493-3.493V19.937
			h55.883c0.643,0,1.164-0.521,1.164-1.164c0-0.643-0.521-1.164-1.164-1.164H2.329v-4.657c0-1.926,1.567-3.493,3.493-3.493h4.802
			V7.13H5.821C2.611,7.13,0,9.742,0,12.952v51.227C0,67.388,2.611,70,5.821,70h62.869c3.21,0,5.821-2.612,5.821-5.821V12.952
			C74.512,9.742,71.9,7.13,68.691,7.13z"/>
		<path d="M61.705,18.773c0,0.643,0.522,1.164,1.165,1.164h2.328c0.643,0,1.165-0.521,1.165-1.164c0-0.643-0.522-1.164-1.165-1.164
			h-2.328C62.226,17.609,61.705,18.13,61.705,18.773z"/>
		<path d="M12.795,14.699c0.618,0,1.122-0.483,1.16-1.092h0.015V9.459h46.57v1.717c0,0.01-0.001,0.02-0.001,0.03v2.328
			c0,0.01,0.001,0.02,0.001,0.03v0.043h0.002c0.038,0.609,0.542,1.092,1.16,1.092c0.618,0,1.122-0.483,1.16-1.092h0.006V1.164
			h-0.002C62.866,0.521,62.346,0,61.703,0c-0.643,0-1.164,0.522-1.164,1.165v2.328c0,0.01,0.001,0.02,0.001,0.03V7.13h-46.57V1.164
			h-0.012C13.959,0.521,13.438,0,12.795,0c-0.643,0-1.164,0.522-1.164,1.165v12.369C11.632,14.177,12.152,14.699,12.795,14.699z"/>
	</g>
	<g>
		<path d="M33.589,35.413c0-4.389-2.851-7.224-7.262-7.224c-4.343,0-7.262,2.903-7.262,7.224c0,0.138,0.112,0.25,0.25,0.25h1.902
			c0.138,0,0.25-0.112,0.25-0.25c0-3.16,1.816-5.046,4.859-5.046c2.998,0,4.86,1.934,4.86,5.046c0,1.478-0.444,2.707-1.441,3.989
			L19.08,53.388c-0.033,0.043-0.051,0.097-0.051,0.151v1.679c0,0.138,0.112,0.25,0.25,0.25h14.061c0.138,0,0.25-0.112,0.25-0.25
			v-1.679c0-0.138-0.112-0.25-0.25-0.25H22.06l9.65-12.613C33.08,38.887,33.589,37.461,33.589,35.413z"/>
		<path d="M48.184,28.189c-4.344,0-7.262,3.203-7.262,7.97c0,4.589,2.844,7.672,7.075,7.672c0.951,0,1.842-0.139,2.615-0.403
			L44.79,55.106c-0.039,0.077-0.034,0.169,0.011,0.243c0.046,0.073,0.126,0.118,0.213,0.118h1.902c0.095,0,0.182-0.054,0.224-0.139
			l6.826-13.764c1.063-2.165,1.518-3.86,1.518-5.667C55.484,31.215,52.618,28.189,48.184,28.189z M53.081,36.01
			c0,3.429-1.923,5.644-4.897,5.644c-3.587,0-4.859-3.04-4.859-5.644c0-3.428,1.907-5.643,4.859-5.643
			C51.158,30.367,53.081,32.582,53.081,36.01z"/>
	</g>
</g>
</svg>
