<?xml version="1.0" encoding="utf-8"?>
<!-- Generator: Adobe Illustrator 17.0.0, SVG Export Plug-In . SVG Version: 6.00 Build 0)  -->
<!DOCTYPE svg PUBLIC "-//W3C//DTD SVG 1.1//EN" "http://www.w3.org/Graphics/SVG/1.1/DTD/svg11.dtd">
<svg version="1.1" id="Layer_1" xmlns="http://www.w3.org/2000/svg" xmlns:xlink="http://www.w3.org/1999/xlink" x="0px" y="0px" width="664.589px" height="170.079px" viewBox="0 0 664.589 170.079" enable-background="new 0 0 664.589 170.079" xml:space="preserve">
    <g>
        <path fill="none" d="M0,0v170.079h664.589V0H0z" />
    </g>
    <g>
        <path d="M0,0v170.079h664.589V0H0z" />
    </g>
    <g>
        <polygon fill="#FFFFFF" points="142.742,78.416 107.303,78.416 107.303,60.762 96.86,60.762 96.86,109.147 107.303,109.147 
	107.303,88.025 142.742,88.025 142.742,109.147 153.195,109.147 153.195,60.762 142.742,60.762 	" />
        <path fill="#FFFFFF" d="M177.591,109.147h12.463l8.866-13.77h24.689l8.866,13.77h12.461L211.273,56.85L177.591,109.147z
	 M217.404,85.68h-12.186l6.057-9.478L217.404,85.68z" />
        <polygon fill="#FFFFFF" points="312.154,92.13 266.442,56.21 266.442,109.147 276.882,109.147 276.882,78.093 322.602,113.337 
	322.602,60.762 312.154,60.762 	" />
        <path fill="#FFFFFF" d="M385.521,93.772h14.027c-2.195,5.426-11.098,7.376-18.316,7.376c-12.612,0-22.874-7.268-22.874-16.203
	c0-8.97,10.262-16.268,22.874-16.268c8.441,0,16.631,3.957,21.91,10.584l1.101,1.384V66.127l-0.268-0.185
	c-6.528-4.491-14.604-6.965-22.743-6.965c-18.611,0-33.751,11.649-33.751,25.967c0,14.273,15.14,25.887,33.751,25.887
	c18.138,0,29.858-9.263,29.858-23.599v-3.076h-25.569V93.772z" />
        <path fill="#FFFFFF" d="M426.798,109.147h12.462l8.871-13.77h24.683l8.868,13.77h12.46L460.474,56.85L426.798,109.147z
	 M454.419,85.68l6.057-9.478l6.132,9.478H454.419z" />
        <path fill="#FFFFFF" d="M553.978,87.847c6.579-2.101,10.047-6.566,10.047-12.954c0-10.419-9.88-14.131-19.125-14.131h-29.264
	v48.385h10.443v-20.03h16.459l12.672,20.03h12.452L553.978,87.847z M553.155,74.893c0,2.251-1.082,4.551-9.105,4.551h-17.971
	v-9.007h17.971C552.119,70.437,553.155,72.819,553.155,74.893z" />
    </g>
    <g>
        <polygon fill="#FFFFFF" points="142.742,78.416 107.303,78.416 107.303,60.762 96.86,60.762 96.86,109.147 107.303,109.147 
	107.303,88.025 142.742,88.025 142.742,109.147 153.195,109.147 153.195,60.762 142.742,60.762 	" />
        <path fill="#FFFFFF" d="M177.591,109.147h12.463l8.866-13.77h24.689l8.866,13.77h12.461L211.273,56.85L177.591,109.147z
	 M217.404,85.68h-12.186l6.057-9.478L217.404,85.68z" />
        <polygon fill="#FFFFFF" points="312.154,92.13 266.442,56.21 266.442,109.147 276.882,109.147 276.882,78.093 322.602,113.337 
	322.602,60.762 312.154,60.762 	" />
        <path fill="#FFFFFF" d="M385.521,93.772h14.027c-2.195,5.426-11.098,7.376-18.316,7.376c-12.612,0-22.874-7.268-22.874-16.203
	c0-8.97,10.262-16.268,22.874-16.268c8.441,0,16.631,3.957,21.91,10.584l1.101,1.384V66.127l-0.268-0.185
	c-6.528-4.491-14.604-6.965-22.743-6.965c-18.611,0-33.751,11.649-33.751,25.967c0,14.273,15.14,25.887,33.751,25.887
	c18.138,0,29.858-9.263,29.858-23.599v-3.076h-25.569V93.772z" />
        <path fill="#FFFFFF" d="M426.798,109.147h12.462l8.871-13.77h24.683l8.868,13.77h12.46L460.474,56.85L426.798,109.147z
	 M454.419,85.68l6.057-9.478l6.132,9.478H454.419z" />
        <path fill="#FFFFFF" d="M553.978,87.847c6.579-2.101,10.047-6.566,10.047-12.954c0-10.419-9.88-14.131-19.125-14.131h-29.264
	v48.385h10.443v-20.03h16.459l12.672,20.03h12.452L553.978,87.847z M553.155,74.893c0,2.251-1.082,4.551-9.105,4.551h-17.971
	v-9.007h17.971C552.119,70.437,553.155,72.819,553.155,74.893z" />
    </g>
</svg>
