<?xml version="1.0" encoding="utf-8"?>
<!-- Generator: Adobe Illustrator 17.0.0, SVG Export Plug-In . SVG Version: 6.00 Build 0)  -->
<!DOCTYPE svg PUBLIC "-//W3C//DTD SVG 1.1//EN" "http://www.w3.org/Graphics/SVG/1.1/DTD/svg11.dtd">
<svg version="1.1" id="Layer_1" xmlns="http://www.w3.org/2000/svg" xmlns:xlink="http://www.w3.org/1999/xlink" x="0px" y="0px"
	 width="46px" height="70px" viewBox="0 0 46 70" enable-background="new 0 0 46 70" xml:space="preserve">
<g>
	<g>
		<path d="M23.5,32c-4.136,0-7.5-3.364-7.5-7.5s3.364-7.5,7.5-7.5s7.5,3.364,7.5,7.5S27.636,32,23.5,32z M23.5,19
			c-3.033,0-5.5,2.467-5.5,5.5s2.467,5.5,5.5,5.5c3.032,0,5.5-2.467,5.5-5.5S26.532,19,23.5,19z"/>
	</g>
	<path d="M23,2c11.579,0,21,9.421,21,21c0,9.138-13.886,32.409-21,43.366C15.886,55.409,2,32.138,2,23C2,11.421,11.421,2,23,2 M23,0
		C10.297,0,0,10.298,0,23c0,12.703,23,47,23,47s23-34.297,23-47C46,10.298,35.703,0,23,0L23,0z"/>
</g>
</svg>
