<?xml version="1.0" encoding="utf-8"?>
<!-- Generator: Adobe Illustrator 17.0.0, SVG Export Plug-In . SVG Version: 6.00 Build 0)  -->
<!DOCTYPE svg PUBLIC "-//W3C//DTD SVG 1.1//EN" "http://www.w3.org/Graphics/SVG/1.1/DTD/svg11.dtd">
<svg version="1.1" id="Layer_1" xmlns="http://www.w3.org/2000/svg" xmlns:xlink="http://www.w3.org/1999/xlink" x="0px" y="0px"
	 width="354.722px" height="354.722px" viewBox="0 0 354.722 354.722" enable-background="new 0 0 354.722 354.722"
	 xml:space="preserve">
<g>
	<g>
		<g>
			<path d="M65.715,204.8H47.799v-26.392H30.943v68.581h16.856v-27.163h17.916v27.163h16.856v-68.581H65.715V204.8z
				 M144.418,185.536c-5.009-5.009-10.788-7.706-19.168-7.706c-8.38,0-14.159,2.697-19.168,7.706
				c-7.224,7.224-6.935,16.856-6.935,27.163s-0.289,19.939,6.935,27.163c5.009,5.009,10.788,7.706,19.168,7.706
				c8.38,0,14.159-2.697,19.168-7.706c7.224-7.224,6.935-16.856,6.935-27.163S151.642,192.76,144.418,185.536z M131.992,229.458
				c-1.252,1.637-3.66,3.082-6.743,3.082c-3.082,0-5.49-1.445-6.742-3.082c-1.541-2.023-2.504-4.238-2.504-16.76
				c0-12.522,0.963-14.833,2.504-16.856c1.252-1.638,3.66-2.986,6.742-2.986c3.082,0,5.49,1.349,6.743,2.986
				c1.541,2.023,2.504,4.335,2.504,16.856C134.497,225.22,133.533,227.435,131.992,229.458z M202.046,222.523
				c0,6.357-3.66,10.017-9.247,10.017s-9.054-3.66-9.054-10.017v-44.115h-16.856v44.5c0,15.026,11.655,24.658,25.91,24.658
				s26.103-9.632,26.103-24.658v-44.5h-16.856V222.523z M263.824,205.281l-8.284-1.156c-2.408-0.289-3.853-1.156-4.72-2.023
				c-1.06-1.06-1.349-2.312-1.349-3.179c0-2.986,2.408-6.357,8.284-6.357c2.986,0,8.669-0.289,13.003,4.046l10.595-10.595
				c-5.876-5.876-13.292-8.187-23.117-8.187c-15.604,0-25.044,9.151-25.044,21.672c0,5.876,1.541,10.499,4.72,13.774
				c3.082,3.179,7.706,5.201,13.774,6.068l8.284,1.156c2.215,0.289,3.66,0.963,4.527,1.83c0.963,1.06,1.348,2.408,1.348,4.045
				c0,3.949-3.179,6.165-9.825,6.165c-5.49,0-11.751-1.252-15.315-4.816l-10.788,10.788c6.935,7.128,15.508,9.054,26.007,9.054
				c14.448,0,26.488-7.609,26.488-21.576c0-6.357-1.445-11.462-5.105-15.026C274.419,208.075,269.989,206.148,263.824,205.281z
				 M344.423,193.434v-15.026h-46.62v68.581h46.62v-15.026H314.66v-12.04h25.429v-15.026H314.66v-11.462H344.423z M33.405,148.572
				c0.703,1.852,1.851,3.598,3.445,5.238c3.633,3.633,8.121,5.449,13.465,5.449c5.344,0,9.855-1.825,13.535-5.477
				c1.547-1.616,2.672-3.367,3.375-5.253c0.703-1.885,1.131-3.9,1.283-6.043c0.152-2.143,0.229-5.241,0.229-9.294
				c0-4.052-0.076-7.155-0.229-9.31c-0.153-2.155-0.575-4.164-1.266-6.026c-0.692-1.862-1.823-3.613-3.393-5.253
				c-3.68-3.63-8.191-5.446-13.535-5.446c-5.344,0-9.832,1.817-13.465,5.449c-1.243,1.266-2.197,2.561-2.865,3.885
				c-0.668,1.324-1.149,2.748-1.441,4.271c-0.293,1.524-0.481,3.199-0.562,5.027c-0.082,1.828-0.123,4.301-0.123,7.418
				c0,4.055,0.082,7.166,0.246,9.334C32.268,144.711,32.702,146.721,33.405,148.572z M40.208,122.471
				c0.387-2.059,1.201-3.778,2.443-5.159c0.89-0.959,2.021-1.725,3.392-2.298c1.371-0.573,2.795-0.86,4.272-0.86
				c1.453,0,2.865,0.287,4.236,0.86c1.371,0.573,2.502,1.339,3.393,2.298c1.242,1.334,2.057,3.042,2.443,5.124
				c0.387,2.082,0.58,5.673,0.58,10.773c0,3.322-0.076,5.989-0.229,8.001c-0.153,2.012-0.445,3.603-0.879,4.772
				c-0.434,1.17-1.072,2.211-1.916,3.123c-1.992,2.106-4.535,3.158-7.629,3.158c-1.477,0-2.889-0.281-4.236-0.842
				c-1.348-0.561-2.491-1.333-3.428-2.316c-0.727-0.842-1.254-1.602-1.582-2.281c-0.329-0.679-0.61-1.626-0.844-2.843
				c-0.235-1.216-0.393-2.638-0.475-4.264c-0.082-1.626-0.123-3.796-0.123-6.509C39.628,128.109,39.821,124.529,40.208,122.471z
				 M111.412,136.671c2.508-1.347,4.43-3.199,5.766-5.555c1.336-2.355,2.004-5.021,2.004-7.998c0-2.273-0.376-4.342-1.126-6.205
				c-0.751-1.863-1.842-3.492-3.273-4.887c-1.431-1.394-3.191-2.484-5.279-3.269c-2.088-0.785-4.34-1.178-6.756-1.178H83.287v51.258
				h7.84v-20.145h11.637C106.021,138.693,108.903,138.02,111.412,136.671z M91.127,131.627v-17.051h11.215
				c2.742,0,4.939,0.76,6.592,2.281c1.652,1.521,2.478,3.613,2.478,6.28c0,2.643-0.821,4.719-2.461,6.228
				c-1.641,1.508-3.844,2.263-6.609,2.263H91.127z M132.002,158.838h32.801v-6.996h-24.961v-15.398h21.305v-6.926h-21.305v-14.941
				h24.961v-6.996h-32.801V158.838z M186.018,122.767l23.66,36.07h7.137V107.58h-7.77v36l-23.698-36h-7.169v51.258h7.84V122.767z"/>
		</g>
	</g>
	<g>
		<polygon points="271.809,271.809 260.496,271.809 335.411,346.724 8,346.724 8,19.314 72.709,84.022 84.022,84.022 0,0 0,354.724 
			354.724,354.724 		"/>
	</g>
</g>
</svg>
