<?xml version="1.0" encoding="utf-8"?>
<!-- Generator: Adobe Illustrator 17.0.0, SVG Export Plug-In . SVG Version: 6.00 Build 0)  -->
<!DOCTYPE svg PUBLIC "-//W3C//DTD SVG 1.1//EN" "http://www.w3.org/Graphics/SVG/1.1/DTD/svg11.dtd">
<svg version="1.1" id="Layer_1" xmlns="http://www.w3.org/2000/svg" xmlns:xlink="http://www.w3.org/1999/xlink" x="0px" y="0px"
	 width="100px" height="100px" viewBox="0 0 100 100" enable-background="new 0 0 100 100" xml:space="preserve">
<g>
	<g>
		<g>
			<g>
				<path d="M22.996,65.364V46.03h-4.752v7.44h-5.051v-7.44H8.441v19.334h4.752v-7.657h5.051v7.657H22.996z M35.027,45.867
					c-2.362,0-3.992,0.76-5.404,2.172c-2.037,2.037-1.955,4.752-1.955,7.657s-0.081,5.621,1.955,7.657
					c1.412,1.412,3.041,2.172,5.404,2.172c2.362,0,3.992-0.76,5.404-2.172c2.036-2.036,1.955-4.752,1.955-7.657
					s0.081-5.621-1.955-7.657C39.019,46.628,37.389,45.867,35.027,45.867z M36.928,60.422c-0.353,0.462-1.032,0.869-1.901,0.869
					c-0.869,0-1.548-0.407-1.901-0.869c-0.434-0.57-0.706-1.195-0.706-4.725s0.272-4.182,0.706-4.752
					c0.353-0.462,1.032-0.842,1.901-0.842c0.869,0,1.548,0.38,1.901,0.842c0.434,0.57,0.706,1.222,0.706,4.752
					S37.362,59.852,36.928,60.422z M54.07,65.527c4.019,0,7.359-2.715,7.359-6.951V46.03h-4.752v12.437
					c0,1.792-1.032,2.824-2.607,2.824c-1.575,0-2.552-1.032-2.552-2.824V46.03h-4.752v12.545
					C46.765,62.811,50.051,65.527,54.07,65.527z M74.092,53.606l-2.335-0.326c-0.679-0.081-1.086-0.326-1.331-0.57
					c-0.299-0.299-0.38-0.652-0.38-0.896c0-0.842,0.679-1.792,2.335-1.792c0.842,0,2.444-0.081,3.666,1.14l2.987-2.987
					c-1.656-1.656-3.747-2.308-6.517-2.308c-4.399,0-7.06,2.58-7.06,6.11c0,1.656,0.434,2.96,1.331,3.883
					c0.869,0.896,2.172,1.466,3.883,1.711l2.335,0.326c0.625,0.081,1.032,0.272,1.276,0.516c0.272,0.299,0.38,0.679,0.38,1.14
					c0,1.113-0.896,1.738-2.77,1.738c-1.548,0-3.313-0.353-4.317-1.358l-3.041,3.041c1.955,2.009,4.372,2.552,7.332,2.552
					c4.073,0,7.467-2.145,7.467-6.082c0-1.792-0.407-3.231-1.439-4.236C77.079,54.394,75.83,53.851,74.092,53.606z M96.814,50.266
					V46.03H83.672v19.334h13.142v-4.236h-8.391v-3.394h7.169v-4.236h-7.169v-3.231H96.814z M9.135,37.619
					c0.198,0.522,0.522,1.014,0.971,1.477c1.024,1.024,2.289,1.536,3.796,1.536c1.506,0,2.778-0.515,3.816-1.544
					c0.436-0.456,0.753-0.949,0.951-1.481c0.198-0.531,0.319-1.099,0.362-1.704c0.043-0.604,0.064-1.477,0.064-2.62
					c0-1.142-0.021-2.017-0.064-2.625c-0.043-0.607-0.162-1.174-0.357-1.699c-0.195-0.525-0.514-1.018-0.956-1.481
					c-1.037-1.023-2.309-1.535-3.816-1.535c-1.506,0-2.772,0.512-3.796,1.536c-0.35,0.357-0.619,0.722-0.808,1.095
					C9.11,28.949,8.975,29.35,8.892,29.78c-0.083,0.43-0.135,0.902-0.159,1.417c-0.023,0.515-0.035,1.213-0.035,2.091
					c0,1.143,0.023,2.02,0.069,2.631C8.815,36.531,8.937,37.097,9.135,37.619z M11.053,30.261c0.109-0.58,0.339-1.065,0.689-1.454
					c0.251-0.27,0.57-0.486,0.956-0.648c0.387-0.162,0.788-0.242,1.204-0.242c0.41,0,0.808,0.081,1.194,0.242
					c0.387,0.162,0.705,0.378,0.956,0.648c0.35,0.376,0.58,0.858,0.689,1.445s0.164,1.599,0.164,3.037
					c0,0.937-0.022,1.688-0.064,2.255c-0.043,0.567-0.126,1.016-0.248,1.345c-0.122,0.33-0.302,0.623-0.54,0.88
					c-0.562,0.594-1.279,0.89-2.151,0.89c-0.416,0-0.814-0.079-1.194-0.237c-0.38-0.158-0.702-0.376-0.966-0.653
					c-0.205-0.237-0.354-0.452-0.446-0.643c-0.093-0.191-0.172-0.458-0.238-0.801c-0.066-0.343-0.111-0.744-0.134-1.202
					c-0.023-0.458-0.035-1.07-0.035-1.835C10.889,31.851,10.944,30.842,11.053,30.261z M31.126,34.265
					c0.707-0.38,1.249-0.902,1.625-1.566c0.377-0.664,0.565-1.416,0.565-2.255c0-0.641-0.106-1.224-0.317-1.749
					c-0.212-0.525-0.519-0.984-0.923-1.378c-0.404-0.393-0.9-0.7-1.488-0.922c-0.589-0.221-1.224-0.332-1.905-0.332h-5.486v14.45
					h2.21v-5.679h3.28C29.606,34.834,30.419,34.645,31.126,34.265z M25.408,32.842v-4.807h3.161c0.773,0,1.393,0.214,1.858,0.643
					c0.466,0.429,0.699,1.019,0.699,1.77c0,0.745-0.231,1.33-0.694,1.756c-0.463,0.425-1.084,0.638-1.863,0.638H25.408z
					 M36.931,40.513h9.247v-1.972h-7.037V34.2h6.006v-1.952h-6.006v-4.212h7.037v-1.972h-9.247V40.513z M52.158,30.345l6.67,10.169
					h2.012v-14.45h-2.19v10.149l-6.681-10.149h-2.021v14.45h2.21V30.345z M11.517,70.874L7.47,81.912h1.785l0.756-2.218h4.357
					l0.756,2.218h1.785l-4.047-11.038H11.517z M10.511,78.27l1.717-4.898L13.9,78.27H10.511z M23.781,78.838
					c0,0.581-0.153,1.018-0.458,1.314c-0.305,0.295-0.695,0.443-1.17,0.443c-0.464,0-0.843-0.146-1.136-0.439
					c-0.293-0.293-0.439-0.732-0.439-1.317v-4.785h-1.582v5.019c0,0.474,0.059,0.892,0.178,1.253
					c0.119,0.361,0.322,0.683,0.609,0.965c0.5,0.474,1.146,0.712,1.938,0.712c0.399,0,0.781-0.076,1.147-0.227
					c0.366-0.151,0.683-0.368,0.95-0.651v0.787h1.544v-7.858h-1.582V78.838z M33.13,74.891c-0.287-0.35-0.593-0.594-0.918-0.731
					c-0.325-0.137-0.707-0.206-1.145-0.206c-0.398,0-0.759,0.059-1.081,0.178c-0.322,0.119-0.592,0.286-0.809,0.503
					c-0.348,0.348-0.581,0.777-0.699,1.287c-0.118,0.51-0.178,1.146-0.178,1.908c0,0.767,0.058,1.403,0.174,1.908
					c0.116,0.505,0.35,0.934,0.703,1.287c0.222,0.222,0.496,0.394,0.824,0.515c0.328,0.121,0.678,0.182,1.051,0.182
					c0.428,0,0.806-0.068,1.134-0.204c0.327-0.136,0.627-0.366,0.899-0.689v1.007c0,0.575-0.151,1.052-0.453,1.431
					c-0.302,0.379-0.766,0.568-1.39,0.568c-0.363,0-0.669-0.054-0.918-0.163c-0.249-0.109-0.51-0.286-0.782-0.534l-1.014,1.007
					c0.273,0.247,0.546,0.448,0.821,0.602c0.275,0.154,0.569,0.265,0.882,0.333c0.313,0.068,0.671,0.102,1.075,0.102
					c0.691,0,1.289-0.143,1.794-0.428c0.505-0.285,0.892-0.676,1.162-1.173c0.27-0.497,0.405-1.069,0.405-1.715v-7.813H33.13V74.891
					z M32.771,79.634c-0.209,0.443-0.636,0.665-1.28,0.665c-0.65,0-1.08-0.22-1.292-0.661c-0.211-0.441-0.317-1.042-0.317-1.803
					c0-0.761,0.106-1.361,0.317-1.799s0.642-0.658,1.292-0.658c0.644,0,1.071,0.221,1.28,0.661s0.313,1.039,0.313,1.795
					S32.98,79.191,32.771,79.634z M37.93,81.912h1.893v-1.893H37.93V81.912z M54.084,75.064c0.156-0.336,0.235-0.731,0.235-1.185
					c0-0.621-0.134-1.166-0.401-1.635c-0.268-0.469-0.642-0.83-1.124-1.083c-0.482-0.252-1.039-0.379-1.669-0.379
					c-0.469,0-0.898,0.073-1.287,0.22c-0.389,0.146-0.727,0.356-1.014,0.628c-0.288,0.273-0.511,0.603-0.67,0.992
					c-0.159,0.389-0.239,0.813-0.239,1.272h1.582c0-0.58,0.155-1.009,0.466-1.287c0.31-0.278,0.698-0.416,1.162-0.416
					c0.328,0,0.616,0.069,0.863,0.208c0.247,0.139,0.434,0.338,0.56,0.598c0.126,0.26,0.189,0.549,0.189,0.867
					c0,0.5-0.197,0.992-0.591,1.476l-4.247,5.163v1.408h6.42v-1.408h-4.497l3.46-4.232C53.66,75.802,53.927,75.4,54.084,75.064z
					 M61.97,71.18c-0.497-0.265-1.061-0.397-1.692-0.397c-0.631,0-1.194,0.139-1.688,0.416c-0.495,0.278-0.88,0.673-1.155,1.185
					c-0.275,0.512-0.413,1.099-0.413,1.76c0,0.626,0.127,1.182,0.382,1.669c0.255,0.487,0.602,0.863,1.041,1.128
					c0.439,0.265,0.926,0.397,1.461,0.397c0.394,0,0.724-0.058,0.992-0.174l-2.377,4.747h1.696l2.506-5.118
					c0.273-0.55,0.478-1.032,0.617-1.446c0.139-0.414,0.208-0.835,0.208-1.264c0-0.666-0.139-1.25-0.416-1.753
					C62.855,71.829,62.467,71.445,61.97,71.18z M61.497,75.511c-0.313,0.341-0.719,0.511-1.219,0.511
					c-0.515,0-0.922-0.182-1.223-0.545c-0.3-0.363-0.45-0.818-0.45-1.363c0-0.58,0.153-1.046,0.458-1.397
					c0.305-0.351,0.71-0.526,1.215-0.526c0.328,0,0.621,0.078,0.878,0.235c0.257,0.157,0.457,0.381,0.598,0.674
					c0.141,0.293,0.212,0.631,0.212,1.014C61.967,74.704,61.81,75.17,61.497,75.511z"/>
			</g>
		</g>
	</g>
	<polygon points="73.107,73.107 69.518,73.107 93.875,97.463 2.537,97.463 2.537,6.125 16.028,19.616 19.616,19.616 0,0 0,100 
		100,100 	"/>
</g>
</svg>
